<?xml version="1.0" encoding="UTF-8"?>
<!-- Mate Coast — flat brand green, for light grounds -->
<svg xmlns="http://www.w3.org/2000/svg" viewBox="0 0 117 76" fill="#556643" role="img" aria-label="Mate Coast">
<path d="M56.29,5.11c.64.63,2.13,1.33,2.6,2.53,2.94,7.52,4.73,15.11,6.39,22.89.23,1.09-.43,2.4-1.07,2.72-.5.25-2.24.41-2.86-.03-2.2-1.54-1.89-5.01-2.81-7.19-1.21-1.22-4.15-.4-4.76.88-1.4,2.96-.25,5.68-2.61,8.61-.64.79-4.15.58-4.13-.74.16-9.19,2.38-18.06,5.28-26.76l2.26-2.92h1.71ZM55.14,21.79c3.05-1.82,1.92-3.59.79-6.17-.93,1.61-1.97,3.99-.79,6.17Z"/>
  <path d="M71.68,70.08h-6.84c-1.15-.85-2.78-2.6-2.4-3.78,1.39-4.27,7.23.42,10.89-5.33s-5.6-11.21-5.7-18.1c-.03-2.32,1.51-4.42,2.89-5.21,1.85-1.06,3.79-1.45,5.66-.34,1.17.69,1.79,2.11,1.45,3.19-.45,1.44-3.81,1.27-4.22,2.72-.68,2.4,5.06,6.59,5.88,11.27,1.25,7.14-1.48,13-7.6,15.57Z"/>
  <path d="M81.94,5.11c.87.89,1.64,3.74.17,4.24l-6.58,2.22-1.33,7.22c-2.07,3.78-4.91,1.07-5.01-2.63-.19-.48.07-1.54-.19-2-.28-.48-1.53-.77-2.39-.57-2.07.48-3.42-.49-3.56-2.08-.47-5.18,8.91-3.46,14.62-6.41h4.27Z"/>
  <path d="M47.68,61.49c-1.53,1.48-6.04,1.62-7.43-.16-5.11-6.53-2.73-16.81,3.97-21.02,1.52-.95,4.52-.24,5.58.57,4.34,3.33,4.08,14.59-2.12,20.6ZM44.06,57.68c3.78-4.2,3.37-8.57,2.17-13.13-3.65,3.96-3.25,8.77-2.17,13.13Z"/>
  <path d="M74.2,18.79c-.53,2.91,1.36,17.21-3.69,16.15-.78-.16-2.15-1.46-2.14-2.57l.02-8.39c0-2.8,1.18-5.25.79-7.82.8,1.98,2.82,3.18,5.01,2.63Z"/>
  <g>
    <path d="M26.07,56.35c2,3.97-1.7,7.56-4.12,3.73-2.07-4.02-2.26-8.69.35-13.24,4.21-7.35,13-8.3,15.09-5.41.57.79,1.82,2.92-.29,3.58-1.98.62-5.1-.24-7.05,1.38-3.12,2.58-3.84,6.36-3.97,9.97Z"/>
    <path d="M21.95,60.08c1.07.02,2.91-.05,3.34-.82.37-.66.75-2.01.78-2.91,2.08,1.45.6,5.06,4.56,6.56,3.65,1.39,5.57-2.84,8.18-.6.48.41,1.6,1.33,1.02,2.24-1.8,2.79-4.5,4.32-7.16,4.64-3.23.39-5.59-1.44-7.87-3.41s-1.95-3.93-2.86-5.7Z"/>
    <g>
      <path d="M39.26,13.71c3.25,1.93,5.59,8.09.8,8.39-2.97,3.81-4.09,10.19-7.99,8.16-2.12-1.1-2.63-3.76-3.65-5.54-1.95,8.58.12,17.39-4.55,16.15-3.51-.93-2.66-6.04-2.22-8.69,1.22-7.25,1.01-18.14,6-18.19,1.35-.01,2.8,1.28,3.43,2.67l2.57,5.7c1.66-3.64,2.93-6.72,5.62-8.65Z"/>
      <path d="M45.98,21.6c-1.52,6.34-3.54,7.91-6.05,4.73.43-1.22.07-2.83.13-4.23.74-.94,1.15-3.37.75-4.77-.15-.55-2.25-.93-2.27-1.47s.59-1.51.72-2.14c.3-2.87,3.68-5.92,6.74-4.54,1.93,4.3.44,8.51-.02,12.42Z"/>
      <path d="M39.93,26.32c.6-.68,3.12.22,3.56-.45.95-1.44.83-3.82,2.48-4.28l-1.76,14.98c-.19,1.64-1.63,2.7-2.93,2.79-3.09.21-3.15-7.89-1.35-13.04Z"/>
    </g>
  </g>
  <g>
    <path d="M83.51,29.3c-1.62.78-.85,3.79.05,4.46.99.75,2.66.45,3.88-.99,1.33-1.57,5.3-1.85,5.49.52.31,3.68-8.06,7.67-12.32,5.28-4.47-2.5-4.62-11.64-3.35-18.34.98-5.16,4.79-7.28,9.91-6.63,1.26.16,2.82.1,3.27,1.38.4,1.14-.14,2.74-1.6,3.07l-5.08,1.15c-1.48.34-1.56,4.87-.34,5.5,1.25-.16,2.97-.89,4.02-.94.85-.05,2.19,1.55,1.87,2.36-.93,2.34-3.77,2.2-5.8,3.19Z"/>
    <path d="M89.62,56.41c-1.37.86-2.98.84-4.82-.07.46-2.03.4-3.93-.18-5.71-.07-.74.21-2.41-.24-3.13-.88-1.42-5.38.83-6.64-1.9-2.3-4.97,5.8-3.17,13.45-5.67,1.32-.43,2.44-.78,3.54-.24.72.36,2.15,1.67,1.55,2.67-1.16,1.92-3.33,2.61-5.37,3.41l-1.29,10.64Z"/>
    <path d="M88.68,61.04c-.08,1.5-.37,3.02-1.22,4.01-.92,1.08-3.25,1.23-3.96.21-1.72-2.5-.31-5.17.02-7.25.28-2.36,1.95-2.64,5.01-.84-.34,1.57-.3,2.86.14,3.86Z"/>
    <path d="M89.62,56.41c-.18,1.51-.86,3.12-.94,4.63-.59.05-1.11-.38-1.06-.81.03-.24.42-.76.36-1.48-.05-.63-1.63-.76-1.68-.14-.28,3.59-.04,5.53-1.04,2.54-.81-1.3-.29-2.5,1.19-3.52-.91-.71-1.93-.39-2.94.39l1.09-7.38c2.06.53,1.02,3.09,1.35,4.76.14.7,2.08.12,2.35-.13.36-.33,1.2.73,1.3,1.14Z"/>
  </g>
  <g>
    <path d="M63.19,59.59c2.9-2.05,2.86-2.38-.13-.98-.09-.72-.47-2.75-1.19-2.83-6.58-.73-2.79,13.27-8.58,12.68-4.39-.45-1.3-7.48.04-13.28,2.01-8.74,3.25-20.65,8.33-19.2.88.25,1.97,1.24,2.29,2.54l4.77,19.22c.51,2.05.1,3.75-1.92,4.53-1.39.53-3.37-.85-3.61-2.69ZM60.45,51.19c1.91-.46,1.15-3.44.2-3.37-1.72.13-1.18,3.61-.2,3.37Z"/>
    <path d="M63.19,59.59l-.13-.98c.66-.19,1.02-.93,1.34-1.4.73-1.08,2.15-1.13,3,.52-1.05,1.03-2.88,1.3-4.21,1.86Z"/>
  </g>
</svg>
